<svg xmlns="http://www.w3.org/2000/svg" width="512" height="512" viewBox="0 0 512 512" version="1.1">
	<path d="M 232 57.517 C 164.425 65.886, 106.574 107.152, 76.412 168.500 C 38.064 246.497, 54.925 340.089, 118.219 400.574 C 195.431 474.357, 316.569 474.357, 393.781 400.574 C 476.611 321.421, 476.611 190.579, 393.781 111.426 C 350.537 70.103, 290.883 50.225, 232 57.517 M 235.325 73.027 C 162.840 82.164, 103.329 130.986, 80.993 199.640 C 74.461 219.719, 72.648 231.965, 72.648 256 C 72.648 280.035, 74.461 292.281, 80.993 312.360 C 102.003 376.938, 156.857 424.899, 223.770 437.197 C 240.576 440.285, 271.424 440.285, 288.230 437.197 C 363.921 423.286, 423.286 363.921, 437.197 288.230 C 440.285 271.424, 440.285 240.576, 437.197 223.770 C 429.797 183.504, 408.416 145.519, 377.859 118.350 C 353.732 96.898, 320.952 80.908, 288.929 74.970 C 275.941 72.561, 247.267 71.522, 235.325 73.027 M 245.387 142.952 C 218.772 147.095, 198.319 166.911, 193.295 193.420 C 190.496 208.185, 193.664 224.183, 201.998 237.379 C 205.749 243.319, 213.497 251.508, 218.893 255.235 L 221.286 256.888 206.008 312.194 C 197.605 342.612, 190.518 368.063, 190.258 368.750 C 189.883 369.742, 203.422 370, 255.893 370 C 292.252 370, 322 369.781, 322 369.513 C 322 369.246, 315.255 343.083, 307.010 311.374 L 292.021 253.721 298.428 246.929 C 321.424 222.552, 321.422 185.428, 298.423 161.469 C 285.112 147.603, 263.649 140.109, 245.387 142.952 M 246 159.101 C 222.064 163.234, 204.771 187.542, 208.848 211.322 C 211.340 225.851, 220.205 238.160, 233.030 244.899 C 236.589 246.769, 239.630 248.399, 239.790 248.522 C 240.021 248.701, 213.478 345.747, 211.419 352.250 C 210.897 353.899, 213.467 354, 255.933 354 C 291.325 354, 300.998 353.732, 300.991 352.750 C 300.986 352.063, 294.911 328.143, 287.491 299.596 C 280.071 271.048, 274 247.363, 274 246.963 C 274 246.562, 276.813 244.165, 280.250 241.635 C 287.480 236.314, 291.113 232.041, 295.064 224.207 C 305.323 203.870, 298.149 178.455, 278.581 165.807 C 269.082 159.668, 257.054 157.192, 246 159.101" stroke="none" fill="black" fill-rule="evenodd"/>
</svg>